<svg
   xmlns="http://www.w3.org/2000/svg"
   viewBox="0 0 800 135"
   height="135"
   width="800"
   xml:space="preserve"
   id="svg84"
   version="1.1"><g
     transform="matrix(1.3333333,0,0,-1.3333333,0,135)"
     id="g92"><path
       id="path102"
       style="fill:#000000;fill-opacity:1;fill-rule:evenodd;stroke:none"
       d="m 71.604475,77.15694 c -0.83,-0.05 -1.698,-0.75 -2.603,-2.09 -0.831,-1.21 -1.585,-2.5 -2.264,-3.88 -0.85,-1.6 -1.5,-3.06 -1.953,-4.36 -1.189,-3.36 -1.793,-6.44 -1.811,-9.25 -0.019,-1.38 0.216,-2.79 0.707,-4.23 0.491,-1.45 1.094,-2.5 1.811,-3.16 l 0.34,-0.28 1.33,3.08 c 0.717,1.8 1.509,4.06 2.377,6.8 l 1.585,5.23 c 1.245,4.23 1.887,7.44 1.925,9.65 l -0.114,1.19 c -0.188,0.83 -0.632,1.26 -1.33,1.3 z m -0.226,1.16 c 2.245,-0.05 3.358,-1.92 3.339,-5.6 0,-1.79 -0.184,-3.75 -0.552,-5.86 -0.367,-2.11 -0.858,-4.3 -1.471,-6.55 -0.613,-2.26 -1.354,-4.56 -2.222,-6.92 l -1.839,-4.73 1.132,-0.25 c 0.641,-0.15 1.377,-0.25 2.207,-0.28 l 0.764,-0.06 0.396,-0.09 0.142,-0.08 0.028,-0.48 c -0.075,-0.23 -0.188,-0.37 -0.339,-0.43 l -0.595,-0.05 -3.141,0.45 -1.019,0.14 -0.764,-1.53 c -0.849,-1.71 -1.773,-3.26 -2.773,-4.64 -3.547,-5 -8.415,-7.49 -14.604,-7.47 -2.509,-0.02 -5.358,0.46 -8.546,1.44 -0.831,0.23 -1.529,0.53 -2.095,0.91 l -0.339,0.28 -0.085,0.17 c -0.038,0.17 0.037,0.39 0.226,0.65 l 0.566,0.99 0.453,0.48 0.623,-0.28 c 0.358,-0.26 0.905,-0.56 1.641,-0.88 l 2.887,-1.27 c 1.736,-0.74 3.509,-1.09 5.32,-1.08 2,-0.01 3.83,0.43 5.491,1.34 1.49,0.77 2.764,1.82 3.82,3.14 1.604,1.98 3.038,4.3 4.302,6.96 l 0.934,2.01 -0.793,0.62 c -2.792,2.34 -4.197,5.64 -4.216,9.91 -0.038,4.37 1.679,9.05 5.15,14.03 0.736,1.08 1.557,2.09 2.463,3.03 1.264,1.32 2.433,1.98 3.509,1.98 z m 13.677,0 c 1.396,-0.09 2.142,-0.92 2.236,-2.49 -0.057,-1.28 -0.547,-2.64 -1.472,-4.07 -0.585,-0.89 -1.235,-1.68 -1.952,-2.38 l -0.312,-0.26 -0.226,-0.08 c -0.321,-0.02 -0.472,0.1 -0.453,0.37 l 0.113,0.28 0.425,0.65 0.99,1.44 c 0.283,0.44 0.576,1.01 0.878,1.73 l 0.198,0.51 -0.821,0.17 c -1.019,0.28 -1.575,0.97 -1.67,2.07 0.095,1.28 0.783,1.97 2.066,2.06 z m 144.882995,-46.24 -1.13,-1.16 -1.61,-1.78 c -2.08,-2.59 -3.12,-4.65 -3.14,-6.17 0,-0.27 0.05,-0.49 0.17,-0.66 l 0.25,-0.22 0.43,-0.11 c 0.96,-0.04 1.81,0.85 2.54,2.68 l 0.8,2.27 0.73,2.15 z m 13.65,7.44 c 1.56,-0.07 2.39,-1.04 2.46,-2.88 -0.04,-1.46 -0.88,-3.13 -2.52,-5.01 -1.26,-1.42 -2.69,-2.65 -4.27,-3.68 l -0.31,-0.12 c -0.15,0 -0.28,0.06 -0.37,0.17 l -0.11,0.31 0.17,0.26 0.62,0.57 c 1.6,1.39 2.97,2.94 4.1,4.64 l 0.63,1.02 -0.74,0.14 c -1.21,0.3 -1.85,1.05 -1.93,2.26 0.08,1.47 0.83,2.25 2.27,2.32 z m 30.43,9.43 1.25,-0.17 c 0.3,-0.08 0.46,-0.24 0.48,-0.49 l -0.14,-0.42 -0.49,-0.93 -0.45,0.28 c -0.68,0.36 -1.26,0.54 -1.75,0.54 -1.27,-0.02 -2.48,-0.9 -3.65,-2.63 -0.97,-1.44 -1.68,-2.81 -2.15,-4.11 l -0.49,-1.47 c -0.13,-0.47 -0.19,-0.92 -0.19,-1.36 0,-0.98 0.43,-1.47 1.3,-1.47 0.92,0 1.94,0.67 3.05,2.01 l 1.36,1.75 c 0.53,0.72 1.13,1.65 1.79,2.78 l 1.86,3.22 0.74,1.42 0.25,0.42 c 0.12,0.14 0.33,0.2 0.66,0.2 h 1.01 l 0.32,-0.03 0.22,-0.11 0.12,-0.14 c 0,-0.27 -0.04,-0.48 -0.12,-0.65 l -0.28,-0.74 -1.42,-3.93 -1.13,-3.29 -0.45,-1.5 -0.06,-0.45 c 0,-0.6 0.24,-0.92 0.71,-0.96 0.74,0.04 1.58,0.56 2.52,1.56 l 0.71,0.7 0.39,0.34 0.31,0.17 0.23,-0.11 0.09,-0.28 c -0.06,-0.21 -0.19,-0.43 -0.4,-0.65 l -1.73,-1.81 c -1.19,-1.25 -2.37,-1.86 -3.54,-1.84 -1.37,-0.06 -2.05,0.67 -2.03,2.17 0,0.67 0.11,1.45 0.34,2.35 l 0.42,1.59 -1.39,-1.78 -1.64,-1.93 c -1.49,-1.56 -2.94,-2.37 -4.36,-2.4 -0.81,-0.02 -1.5,0.3 -2.09,0.96 -0.47,0.54 -0.72,1.28 -0.74,2.21 -0.01,0.79 0.11,1.54 0.37,2.26 0.83,2.41 2.1,4.41 3.8,6 0.71,0.7 1.57,1.29 2.57,1.78 0.79,0.42 1.61,0.7 2.46,0.85 z m -45.86,0 0.26,-0.12 0.14,-0.22 -0.09,-0.65 -0.42,-1.33 -1.87,-5.81 -0.68,-2.26 c -0.19,-0.68 -0.28,-1.21 -0.28,-1.59 0,-0.52 0.3,-0.83 0.9,-0.93 0.55,-0.04 1.12,0.3 1.7,1.02 l 1.53,1.98 c 0.76,1.09 1.39,2.06 1.9,2.89 l 1.64,2.8 1.27,2.29 0.6,1.11 c 0.11,0.2 0.26,0.34 0.45,0.42 l 0.71,0.17 0.68,0.14 0.56,0.09 0.31,-0.12 0.12,-0.22 -0.26,-0.99 -2.94,-10.45 1.84,1.67 0.39,0.31 0.17,0.03 0.34,-0.25 0.14,-0.29 -0.05,-0.14 -0.37,-0.39 -2.69,-2.47 -1.02,-2.8 -1.16,-3.42 c -0.54,-1.59 -1.21,-3.1 -2.01,-4.53 -1.49,-2.79 -3.16,-4.16 -5.01,-4.1 -1.35,0.02 -2.04,0.7 -2.06,2.06 0,1.4 0.75,3.14 2.26,5.24 0.7,0.98 1.58,2.05 2.63,3.2 l 2.35,2.46 0.71,0.71 2.77,9.48 -1.44,-2.32 -1.19,-1.87 c -2.15,-3.28 -4.04,-4.92 -5.66,-4.9 -0.75,-0.02 -1.33,0.29 -1.72,0.92 -0.4,0.63 -0.58,1.31 -0.54,2.03 -0.02,0.64 0.07,1.37 0.28,2.2 l 0.68,2.66 0.88,3.09 0.54,1.75 c 0.05,0.23 0.15,0.41 0.28,0.54 0.11,0.15 0.31,0.27 0.59,0.37 l 1.42,0.48 z m -14.14,0 1.25,-0.17 c 0.3,-0.08 0.46,-0.24 0.48,-0.49 l -0.14,-0.42 -0.49,-0.93 -0.45,0.28 c -0.68,0.36 -1.26,0.54 -1.75,0.54 -1.27,-0.02 -2.48,-0.9 -3.65,-2.63 -0.97,-1.44 -1.68,-2.81 -2.15,-4.11 l -0.49,-1.47 c -0.13,-0.47 -0.19,-0.92 -0.19,-1.36 0,-0.98 0.43,-1.47 1.3,-1.47 0.92,0 1.94,0.67 3.05,2.01 l 1.36,1.75 c 0.53,0.72 1.13,1.65 1.79,2.78 l 1.86,3.22 0.74,1.42 0.25,0.42 c 0.12,0.14 0.33,0.2 0.66,0.2 h 1.01 l 0.32,-0.03 0.22,-0.11 0.12,-0.14 c 0,-0.27 -0.04,-0.48 -0.12,-0.65 l -0.28,-0.74 -1.42,-3.93 -1.13,-3.29 -0.45,-1.5 -0.06,-0.45 c 0,-0.6 0.24,-0.92 0.71,-0.96 0.74,0.04 1.58,0.56 2.52,1.56 l 0.71,0.7 0.39,0.34 0.31,0.17 0.23,-0.11 0.09,-0.28 c -0.06,-0.21 -0.19,-0.43 -0.4,-0.65 l -1.73,-1.81 c -1.19,-1.25 -2.37,-1.86 -3.54,-1.84 -1.37,-0.06 -2.05,0.67 -2.03,2.17 0,0.67 0.11,1.45 0.34,2.35 l 0.42,1.59 -1.39,-1.78 -1.64,-1.93 c -1.49,-1.56 -2.94,-2.37 -4.36,-2.4 -0.81,-0.02 -1.5,0.3 -2.09,0.96 -0.47,0.54 -0.72,1.28 -0.74,2.21 -0.01,0.79 0.11,1.54 0.37,2.26 0.83,2.41 2.1,4.41 3.8,6 0.71,0.7 1.57,1.29 2.57,1.78 0.79,0.42 1.61,0.7 2.46,0.85 z m -22.56,0 0.2,-0.12 0.08,-0.2 -0.11,-0.59 -2.24,-7.39 1.81,2.58 2.04,2.83 c 1.4,1.89 2.69,2.85 3.88,2.89 0.71,-0.02 1.33,-0.29 1.84,-0.8 0.51,-0.51 0.75,-1.1 0.73,-1.78 -0.02,-0.79 -0.17,-1.6 -0.45,-2.43 l -0.88,-2.3 -1.41,-3.59 -0.14,-0.59 c 0,-0.49 0.22,-0.74 0.68,-0.74 0.26,0 0.58,0.13 0.96,0.4 l 1.38,1.1 1.05,0.96 0.57,0.57 0.31,0.2 0.34,-0.17 0.14,-0.17 0.03,-0.14 c 0.02,-0.44 -0.87,-1.38 -2.66,-2.83 -1.55,-1.25 -2.67,-1.86 -3.37,-1.84 -1.45,0.01 -2.16,0.64 -2.12,1.86 0,0.68 0.19,1.54 0.56,2.58 l 0.88,2.49 0.88,2.49 0.59,1.67 c 0.12,0.32 0.18,0.62 0.2,0.91 0,0.5 -0.26,0.81 -0.79,0.9 -0.55,-0.02 -1.13,-0.42 -1.76,-1.22 l -1.38,-1.86 -2.32,-3.37 c -0.68,-1.02 -1.32,-2.14 -1.93,-3.37 -0.43,-0.91 -0.83,-1.62 -1.19,-2.15 -0.13,-0.23 -0.28,-0.37 -0.45,-0.43 l -0.54,-0.08 h -1.41 l -0.2,0.2 0.08,0.56 0.12,0.43 3.03,10.92 0.14,0.51 c 0.07,0.17 0.17,0.3 0.28,0.4 l 0.48,0.2 1.67,0.42 z m -14.76,0 1.25,-0.17 c 0.3,-0.08 0.46,-0.24 0.48,-0.49 l -0.14,-0.42 -0.49,-0.93 -0.45,0.28 c -0.68,0.36 -1.26,0.54 -1.75,0.54 -1.27,-0.02 -2.48,-0.9 -3.65,-2.63 -0.97,-1.44 -1.68,-2.81 -2.15,-4.11 l -0.49,-1.47 c -0.13,-0.47 -0.19,-0.92 -0.19,-1.36 0,-0.98 0.43,-1.47 1.3,-1.47 0.92,0 1.94,0.67 3.05,2.01 l 1.36,1.75 c 0.53,0.72 1.13,1.65 1.79,2.78 l 1.86,3.22 0.74,1.42 0.25,0.42 c 0.12,0.14 0.33,0.2 0.66,0.2 h 1.01 l 0.32,-0.03 0.22,-0.11 0.12,-0.14 c 0,-0.27 -0.04,-0.48 -0.12,-0.65 l -0.28,-0.74 -1.42,-3.93 -1.13,-3.29 -0.45,-1.5 -0.06,-0.45 c 0,-0.6 0.24,-0.92 0.71,-0.96 0.74,0.04 1.58,0.56 2.52,1.56 l 0.71,0.7 0.39,0.34 0.31,0.17 0.23,-0.11 0.09,-0.28 c -0.06,-0.21 -0.19,-0.43 -0.4,-0.65 l -1.73,-1.81 c -1.19,-1.25 -2.37,-1.86 -3.54,-1.84 -1.37,-0.06 -2.05,0.67 -2.03,2.17 0,0.67 0.11,1.45 0.34,2.35 l 0.42,1.59 -1.39,-1.78 -1.64,-1.93 c -1.49,-1.56 -2.94,-2.37 -4.36,-2.4 -0.81,-0.02 -1.5,0.3 -2.09,0.96 -0.47,0.54 -0.72,1.28 -0.74,2.21 -0.01,0.79 0.11,1.54 0.37,2.26 0.83,2.41 2.1,4.41 3.8,6 0.71,0.7 1.57,1.29 2.57,1.78 0.79,0.42 1.61,0.7 2.46,0.85 z m -17.48,0 0.25,-0.26 -0.11,-0.42 -0.4,-1.05 -0.99,-3.03 -0.99,-3.28 0.97,1.56 1.58,2.71 c 1.45,2.49 2.75,3.75 3.88,3.77 1.07,-0.06 1.59,-1.07 1.55,-3.03 l -0.05,-1.28 c -0.04,-0.43 -0.11,-0.75 -0.2,-0.96 l -0.28,-0.34 -0.54,-0.42 -1.33,-0.82 c -0.25,-0.17 -0.43,-0.25 -0.54,-0.23 l -0.2,0.14 -0.02,0.12 0.02,0.17 0.2,0.56 0.4,1.13 c 0.15,0.44 0.23,0.81 0.25,1.14 v 0.33 l -0.03,0.23 -0.14,0.26 -0.25,0.08 -0.29,-0.08 c -0.81,-0.63 -1.94,-2.22 -3.39,-4.79 -0.98,-1.71 -1.68,-3.1 -2.1,-4.16 l -0.56,-1.36 -0.14,-0.25 c -0.12,-0.13 -0.23,-0.19 -0.34,-0.17 h -0.51 -1.08 l -0.48,0.06 -0.17,0.11 -0.06,0.2 0.06,0.31 0.62,2.04 1.05,3.79 0.77,3.42 0.31,1.73 c 0.02,0.34 0.07,0.58 0.17,0.71 0.05,0.13 0.19,0.24 0.42,0.34 l 0.62,0.25 1.36,0.51 z m -69.373995,0 0.226,-0.12 0.085,-0.2 -0.141,-0.59 -2.236,-7.44 1.811,2.77 2.151,3.06 c 1.245,1.68 2.387,2.52 3.425,2.52 1.471,0 2.217,-0.86 2.235,-2.58 -0.018,-1.3 -0.358,-3 -1.018,-5.09 l -0.68,-2.1 1.302,2.21 c 0.868,1.49 1.612999,2.67 2.235999,3.54 l 1.612996,2.12 c 1.076,1.26 2.038,1.9 2.887,1.9 0.717,-0.02 1.316,-0.33 1.797,-0.94 0.481,-0.6 0.722,-1.27 0.722,-2.01 -0.019,-0.56 -0.085,-1.11 -0.199,-1.64 l -0.764,-2.86 c -0.49,-1.7 -0.839,-2.8 -1.047,-3.31 -0.151,-0.38 -0.226,-0.7 -0.226,-0.96 -0.019,-0.3 0.141,-0.47 0.481,-0.51 0.264,0 0.594,0.14 0.99,0.42 l 1.387,1.08 1.019,0.93 0.566,0.6 0.34,0.2 0.311,-0.2 0.198,-0.28 c 0.038,-0.4 -0.623,-1.16 -1.981,-2.27 -1.189,-1.02 -2.123,-1.71 -2.802,-2.06 -0.415,-0.25 -0.887,-0.36 -1.415,-0.34 -1.339,0.01 -1.99,0.59 -1.953,1.72 0,0.42 0.085,0.93 0.255,1.53 l 0.368,1.39 c 0.623,2.37 1.179,4.26 1.67,5.66 0.245,0.71 0.377,1.35 0.396,1.89 -0.019,0.4 -0.217,0.64 -0.594,0.71 -0.453,0 -1.076,-0.54 -1.868,-1.61 l -1.726996,-2.55 -2.036999,-3.2 -1.613,-2.83 -1.274,-2.21 c -0.17,-0.28 -0.321,-0.44 -0.453,-0.48 l -0.566,-0.02 h -1.726 c -0.359,-0.04 -0.547,0.13 -0.566,0.5 l 0.113,0.49 0.934,2.26 1.5,3.96 1.132,3.31 c 0.17,0.57 0.264,1.04 0.283,1.42 -0.019,0.62 -0.302,0.94 -0.849,0.96 -0.566,0.02 -1.151,-0.41 -1.755,-1.27 l -1.641,-2.35 -2.094,-3.34 c -0.717,-1.23 -1.255,-2.2 -1.613,-2.92 l -1.189,-2.43 c -0.17,-0.25 -0.321,-0.42 -0.453,-0.51 -0.113,-0.08 -0.292,-0.1 -0.538,-0.08 h -1.415 l -0.198,0.19 0.085,0.6 0.113,0.45 3.028,11.26 0.142,0.51 c 0.038,0.19 0.141,0.33 0.311,0.43 l 0.453,0.2 1.67,0.42 z m 44.633995,29.37 0.25,-0.14 0.15,-0.31 -0.03,-0.48 -1.62,-9.68 c -0.3,-1.7 -0.9,-4.59 -1.81,-8.66 l 2.18,4.41 c 2.04,3.99 4.18,7.13 6.43,9.43 3.47,3.58 6.74,5.39 9.82,5.43 2.13,-0.07 3.93,-0.89 5.4,-2.46 1.3,-1.62 1.99,-3.51 2.07,-5.66 -0.08,-4.91 -2.18,-9.89 -6.31,-14.94 -3.42,-4.1 -7.86,-7.23 -13.33,-9.4 -1.81,-0.72 -3.34,-1.23 -4.59,-1.53 l -2.91,-0.73 -0.54,-0.03 -0.14,0.14 -0.06,0.25 c 0.02,0.21 0.09,0.46 0.2,0.74 l 0.65,1.44 c 0.08,0.21 0.18,0.34 0.31,0.4 l 0.28,0.03 2.27,0.06 c 5.56,0.69 10.08,3.08 13.55,7.16 1.38,1.58 2.6,3.35 3.66,5.32 1.13,2.07 2.02,4.27 2.68,6.59 0.55,1.96 0.83,3.74 0.85,5.32 0,1.57 -0.38,2.88 -1.16,3.93 -0.94,1.33 -2.11,1.98 -3.51,1.96 -3.17,-0.06 -6.77,-2.74 -10.81,-8.04 -1.3,-1.7 -2.5,-3.57 -3.59,-5.62 -1.1,-2.05 -2.14,-4.31 -3.14,-6.8 -0.74,-1.8 -1.63,-4.16 -2.66,-7.11 l -2.13,-6.14 -2.203,-6.9 c -0.962,-3.16 -1.764,-5.71 -2.406,-7.67 l -0.368,-0.63 -0.65,0.4 -1.529,1.33 -0.481,0.48 v 0.17 l 0.142,0.48 1.075,3.03 1.925,5.55 1.415,4.38 2.52,8.35 c 1.02,3.62 1.89,7.08 2.63,10.36 l 1.7,8.46 c 0.43,2.25 0.72,3.98 0.88,5.21 0.01,0.3 0.08,0.54 0.19,0.71 0.08,0.11 0.21,0.22 0.4,0.34 l 1.5,0.82 c 0.3,0.15 0.58,0.23 0.85,0.25 z m 266.44,-38.91 c -1.96,-0.02 -3.53,-0.36 -4.7,-1.02 l -0.7,-0.45 0.82,-0.46 c 0.43,-0.22 0.95,-0.4 1.55,-0.53 0.83,-0.25 1.62,-0.35 2.35,-0.31 0.98,-0.02 2.19,0.14 3.62,0.48 1.04,0.2 1.9,0.46 2.58,0.76 l 0.74,0.34 -1.25,0.42 c -1.87,0.53 -3.54,0.79 -5.01,0.77 z m 141.6,8.35 c -0.66,-0.02 -1.3,-0.41 -1.92,-1.16 l -1.08,-1.56 -1.27,-2.18 -0.85,-1.81 -0.71,-1.78 1.44,0.65 c 3.19,1.51 5.01,3.28 5.47,5.32 l 0.08,0.93 c -0.02,0.83 -0.25,1.33 -0.71,1.5 z m -33.85,0 c -1.46,0 -2.93,-1.33 -4.42,-3.99 -1.21,-2.14 -1.8,-4.08 -1.78,-5.83 0,-0.38 0.07,-0.74 0.22,-1.08 l 0.32,-0.48 0.42,-0.28 c 0.17,-0.1 0.37,-0.13 0.6,-0.12 2.32,-0.01 4.29,2.25 5.91,6.8 0.41,1.17 0.62,2.18 0.62,3.02 0,1.21 -0.63,1.86 -1.89,1.96 z m -26.87,0 c -0.66,-0.02 -1.3,-0.41 -1.92,-1.16 l -1.08,-1.56 -1.27,-2.18 -0.85,-1.81 -0.71,-1.78 1.44,0.65 c 3.19,1.51 5.01,3.28 5.47,5.32 l 0.08,0.93 c -0.02,0.83 -0.25,1.33 -0.71,1.5 z m -30,0 c -0.66,-0.02 -1.3,-0.41 -1.92,-1.16 l -1.08,-1.56 -1.27,-2.18 -0.85,-1.81 -0.71,-1.78 1.44,0.65 c 3.19,1.51 5.01,3.28 5.47,5.32 l 0.08,0.93 c -0.02,0.83 -0.25,1.33 -0.71,1.5 z m -79.04,0 c -0.83,-0.02 -1.73,-0.63 -2.69,-1.81 l -1.38,-1.84 -1.33,-1.93 c -0.55,-0.79 -0.99,-1.51 -1.31,-2.15 -0.26,-0.49 -0.48,-1.04 -0.65,-1.64 -0.17,-0.6 -0.24,-1.05 -0.22,-1.33 -0.02,-0.7 0.33,-1.06 1.04,-1.08 0.98,0 2.19,0.63 3.63,1.87 0.96,0.85 1.84,1.93 2.63,3.23 0.56,0.89 1.05,1.85 1.47,2.88 0.3,0.72 0.45,1.33 0.45,1.82 0,0.6 -0.15,1.08 -0.45,1.43 -0.3,0.34 -0.7,0.53 -1.19,0.55 z m -17.32,0 c -0.66,-0.02 -1.3,-0.41 -1.92,-1.16 l -1.08,-1.56 -1.27,-2.18 -0.85,-1.81 -0.71,-1.78 1.44,0.65 c 3.19,1.51 5.01,3.28 5.47,5.32 l 0.08,0.93 c -0.02,0.83 -0.25,1.33 -0.71,1.5 z m 199.42,1.19 0.25,-0.26 -0.11,-0.42 -0.4,-1.05 -0.99,-3.03 -0.99,-3.28 0.97,1.56 1.58,2.71 c 1.45,2.49 2.75,3.75 3.88,3.77 1.07,-0.06 1.59,-1.07 1.55,-3.03 l -0.05,-1.28 c -0.04,-0.43 -0.11,-0.75 -0.2,-0.96 l -0.28,-0.34 -0.54,-0.42 -1.33,-0.82 c -0.25,-0.17 -0.43,-0.25 -0.54,-0.23 l -0.2,0.14 -0.02,0.12 0.02,0.17 0.2,0.56 0.4,1.13 c 0.15,0.44 0.23,0.81 0.25,1.14 v 0.33 l -0.03,0.23 -0.14,0.26 -0.25,0.08 -0.29,-0.08 c -0.81,-0.63 -1.94,-2.22 -3.39,-4.79 -0.98,-1.71 -1.68,-3.1 -2.1,-4.16 l -0.56,-1.36 -0.14,-0.25 c -0.12,-0.13 -0.23,-0.19 -0.34,-0.17 h -0.51 -1.08 l -0.48,0.06 -0.17,0.11 -0.05,0.2 0.05,0.31 0.62,2.04 1.05,3.79 0.77,3.42 0.31,1.73 c 0.02,0.34 0.07,0.58 0.17,0.71 0.05,0.13 0.19,0.24 0.42,0.34 l 0.62,0.25 1.36,0.51 z m -11.26,0 c 0.81,0 1.52,-0.25 2.13,-0.75 0.62,-0.5 0.92,-1.18 0.92,-2.03 0.02,-2.45 -2.31,-4.71 -6.99,-6.79 l -3,-1.3 0.06,-0.43 c 0.24,-1.09 0.95,-1.65 2.12,-1.67 1.26,0.02 2.81,0.75 4.64,2.18 l 1.76,1.56 c 0.17,0.15 0.34,0.24 0.51,0.25 l 0.25,-0.08 c 0.08,-0.08 0.11,-0.17 0.11,-0.28 l -0.11,-0.34 c -1.23,-1.72 -2.98,-3.01 -5.26,-3.88 -0.55,-0.23 -1.07,-0.39 -1.56,-0.48 -0.49,-0.1 -0.97,-0.13 -1.44,-0.11 -2.66,0.01 -4.01,1.2 -4.05,3.56 -0.02,2.25 1.04,4.55 3.17,6.92 2.13,2.37 4.38,3.59 6.74,3.67 z m -21.41,0 c 0.08,-0.02 0.15,-0.06 0.23,-0.12 l 0.11,-0.28 -0.05,-0.4 -1,-2.83 -1.47,-4.67 0.97,2.18 c 0.39,0.83 0.81,1.63 1.24,2.39 0.43,0.77 0.95,1.46 1.56,2.08 0.98,1.06 2.16,1.61 3.53,1.65 1.23,0.01 2.27,-0.44 3.12,-1.36 0.77,-0.87 1.17,-1.94 1.19,-3.2 -0.04,-2.38 -0.79,-4.53 -2.24,-6.45 -1.6,-2.14 -3.57,-3.18 -5.91,-3.14 -0.66,-0.02 -1.32,0.07 -1.99,0.28 -1.07,0.26 -1.6,0.66 -1.58,1.19 0,0.17 0.07,0.35 0.2,0.53 l 0.22,0.26 0.57,-0.28 1.05,-0.51 c 0.39,-0.19 0.73,-0.29 1.02,-0.29 1.32,-0.01 2.57,1.05 3.76,3.2 0.89,1.55 1.48,3.16 1.78,4.84 0.1,0.51 0.15,1.03 0.15,1.56 0,1.41 -0.61,2.14 -1.82,2.18 -1.58,-0.02 -3.16,-1.54 -4.72,-4.56 l -1.64,-3.42 c -1.29,-2.91 -2.43,-5.98 -3.43,-9.23 l -1.47,-4.73 -1.22,-3.56 -0.19,-0.54 c -0.12,-0.19 -0.23,-0.32 -0.34,-0.4 l -0.4,-0.14 -1.56,-0.39 h -0.22 l -0.29,0.11 -0.11,0.17 0.03,0.34 1.81,5.86 2.26,7.67 2.21,7.55 1.25,4.08 c 0.09,0.28 0.21,0.54 0.36,0.76 l 0.29,0.31 0.25,0.2 2.18,0.99 z m -12.93,0 c 1.26,-0.02 2.26,-0.41 3,-1.16 0.87,-0.87 1.29,-1.86 1.27,-2.98 0,-1.77 -0.62,-3.56 -1.86,-5.37 -1.14,-1.66 -2.55,-2.93 -4.25,-3.8 -1.13,-0.58 -2.29,-0.86 -3.48,-0.84 -1.23,0 -2.28,0.38 -3.16,1.14 -0.87,0.77 -1.3,1.77 -1.28,3.02 -0.02,2.32 1.03,4.54 3.17,6.67 2.22,2.23 4.42,3.33 6.59,3.32 z m -26.38,0 c 0.81,0 1.52,-0.25 2.13,-0.75 0.62,-0.5 0.92,-1.18 0.92,-2.03 0.02,-2.45 -2.31,-4.71 -6.99,-6.79 l -3,-1.3 0.06,-0.43 c 0.24,-1.09 0.95,-1.65 2.12,-1.67 1.26,0.02 2.81,0.75 4.64,2.18 l 1.76,1.56 c 0.17,0.15 0.34,0.24 0.51,0.25 l 0.25,-0.08 c 0.08,-0.08 0.11,-0.17 0.11,-0.28 l -0.11,-0.34 c -1.23,-1.72 -2.98,-3.01 -5.26,-3.88 -0.55,-0.23 -1.07,-0.39 -1.56,-0.48 -0.49,-0.1 -0.97,-0.13 -1.44,-0.11 -2.66,0.01 -4.01,1.2 -4.05,3.56 -0.02,2.25 1.04,4.55 3.17,6.92 2.13,2.37 4.38,3.59 6.74,3.67 z m -19.14,0 0.26,-0.15 0.08,-0.28 -0.08,-0.45 -0.26,-0.77 -0.87,-2.23 -0.99,-3.03 -0.8,-2.69 -0.19,-0.99 -0.09,-1.02 c 0.02,-0.81 0.37,-1.26 1.05,-1.36 1.88,0.1 3.9,2.7 6.05,7.82 l 1.05,2.46 0.6,1.58 c 0.05,0.29 0.14,0.48 0.25,0.6 0.11,0.11 0.28,0.19 0.51,0.25 l 1.19,0.2 0.28,0.06 c 0.34,-0.04 0.5,-0.23 0.48,-0.57 l -0.05,-0.37 -0.2,-0.56 c -0.61,-1.55 -1.44,-3.15 -2.49,-4.79 -0.68,-1.09 -1.4,-2.14 -2.15,-3.14 -2.44,-3.21 -4.49,-4.78 -6.17,-4.72 -1.76,0.01 -2.66,0.94 -2.72,2.77 0,0.73 0.1,1.59 0.31,2.57 l 0.82,3.4 1.11,3.54 0.22,0.59 0.26,0.4 c 0.11,0.09 0.28,0.19 0.51,0.28 l 1.24,0.4 z m -10.86,0 c 0.81,0 1.52,-0.25 2.13,-0.75 0.62,-0.5 0.92,-1.18 0.92,-2.03 0.02,-2.45 -2.31,-4.71 -6.99,-6.79 l -3,-1.3 0.06,-0.43 c 0.24,-1.09 0.95,-1.65 2.12,-1.67 1.26,0.02 2.81,0.75 4.64,2.18 l 1.76,1.56 c 0.17,0.15 0.34,0.24 0.51,0.25 l 0.25,-0.08 c 0.08,-0.08 0.11,-0.17 0.11,-0.28 l -0.11,-0.34 c -1.23,-1.72 -2.98,-3.01 -5.26,-3.88 -0.55,-0.23 -1.07,-0.39 -1.56,-0.48 -0.49,-0.1 -0.97,-0.13 -1.44,-0.11 -2.66,0.01 -4.01,1.2 -4.05,3.56 -0.02,2.25 1.04,4.55 3.17,6.92 2.13,2.37 4.38,3.59 6.74,3.67 z m -96.36,0 c 0.81,0 1.52,-0.25 2.13,-0.75 0.62,-0.5 0.92,-1.18 0.92,-2.03 0.02,-2.45 -2.31,-4.71 -6.99,-6.79 l -3,-1.3 0.06,-0.43 c 0.24,-1.09 0.95,-1.65 2.12,-1.67 1.26,0.02 2.81,0.75 4.64,2.18 l 1.76,1.56 c 0.17,0.15 0.34,0.24 0.51,0.25 l 0.25,-0.08 c 0.08,-0.08 0.11,-0.17 0.11,-0.28 l -0.11,-0.34 c -1.23,-1.72 -2.98,-3.01 -5.26,-3.88 -0.55,-0.23 -1.07,-0.39 -1.56,-0.48 -0.49,-0.1 -0.97,-0.13 -1.44,-0.11 -2.66,0.01 -4.01,1.2 -4.05,3.56 -0.02,2.25 1.04,4.55 3.17,6.92 2.13,2.37 4.38,3.59 6.74,3.67 z m 70.49,19.66 -1.18,-3.39 -1.16,-3.43 c -2.61,-7.67 -4.74,-12.83 -6.4,-15.45 -0.93,-1.45 -1.99,-2.82 -3.2,-4.1 l -2.38,-2.32 1.87,-0.57 c 1.59,-0.47 3.18,-0.83 4.78,-1.07 1.72,-0.31 3.33,-0.45 4.84,-0.43 4.53,0 8.07,1.23 10.62,3.68 1.03,0.98 1.78,2.2 2.23,3.65 0.36,1.12 0.54,2.34 0.54,3.68 -0.04,3.38 -1.01,6.76 -2.91,10.16 -1.91,3.4 -4.03,6.22 -6.37,8.46 z m -50.66,6.23 c 0.31,-0.09 0.46,-0.29 0.46,-0.59 l -0.14,-0.57 -0.34,-1.02 -4.5,-14.57 -4.11,-13.33 c 2.29,2.81 4.23,4.2 5.83,4.19 1.12,0 2.04,-0.39 2.76,-1.15 0.73,-0.76 1.08,-1.72 1.06,-2.87 0,-2.64 -1.32,-4.96 -3.96,-6.94 -2.75,-2.13 -5.31,-3.19 -7.67,-3.19 -1.9,0.03 -2.85,0.89 -2.83,2.57 0,0.49 0.07,1 0.2,1.53 l 0.48,1.78 3.82,13.39 5.46,18.62 0.26,0.76 c 0.09,0.23 0.25,0.41 0.48,0.54 l 0.57,0.23 1.67,0.45 z m 129.62,2.27 c -0.94,-0.14 -2.53,-3.2 -4.76,-9.2 l -1.44,-4.33 -0.96,-3.09 -1.67,-5.54 -0.79,-2.75 0.85,1.19 c 1.11,1.58 2.18,3.3 3.19,5.15 1.16,2.08 2.23,4.3 3.23,6.68 1.87,4.41 2.87,8.03 3,10.84 l -0.06,0.48 c -0.07,0.4 -0.27,0.58 -0.59,0.57 z m -197.85,1.21 c 1.46,0 2.36,-1.23 2.72,-3.71 0.15,-1.11 0.24,-2.11 0.25,-3 0,-1.75 -0.15,-3.87 -0.45,-6.36 -0.36,-3.06 -0.79,-6.32 -1.3,-9.79 l -0.88,-5.92 c -0.68,-4.38 -1.21,-8.13 -1.58,-11.26 l -0.09,-1.14 0.09,-0.42 0.28,-0.2 0.4,0.12 c 0.2,0.13 0.39,0.28 0.56,0.45 l 1.56,1.89 c 1.62,2.1 3.06,4.2 4.33,6.32 1.41,2.32 3.07,5.49 4.98,9.53 1.64,3.46 2.97,6.43 3.99,8.92 1.47,3.53 2.58,6.53 3.31,9.03 l 1.33,4.44 0.2,0.59 c 0.08,0.23 0.19,0.38 0.34,0.46 l 0.54,0.05 h 1.13 l 0.57,-0.11 0.05,-0.26 v -0.14 l -0.14,-0.87 -0.85,-5.86 -1.47,-9.31 c -0.45,-2.85 -0.89,-6.03 -1.3,-9.54 -0.61,-4.66 -0.9,-8.27 -0.88,-10.81 0.06,-4.02 0.69,-6.06 1.9,-6.12 1.07,0.02 2.86,1.37 5.37,4.05 1.42,1.53 2.84,3.41 4.28,5.63 3.32,5.12 6.28,11.2 8.88,18.26 1.14,3.04 2.02,5.86 2.66,8.46 0.36,1.47 0.65,2.87 0.85,4.19 0.1,0.53 0.21,0.88 0.34,1.07 l 0.82,0.48 1.28,0.66 0.56,0.14 0.26,-0.99 -0.09,-0.94 c -2.41,-12.09 -7.68,-23.62 -15.79,-34.58 -1.32,-1.77 -2.65,-3.27 -3.99,-4.5 -1.08,-1 -2.23,-1.84 -3.45,-2.52 -0.98,-0.57 -1.86,-0.84 -2.63,-0.82 -1.53,-0.02 -2.67,1.05 -3.43,3.2 -0.45,1.3 -0.67,2.94 -0.65,4.92 0,3.7 0.28,7.66 0.85,11.89 l 0.96,6.62 0.79,5.55 -1.86,-4.56 c -1.19,-2.77 -2.47,-5.57 -3.82,-8.4 -1.63,-3.36 -3.17,-6.25 -4.65,-8.66 -2.9,-4.85 -5.54,-8.17 -7.92,-9.97 -0.53,-0.41 -1.02,-0.61 -1.47,-0.59 -1.13,0 -1.72,1.26 -1.76,3.79 0,1.7 0.12,3.59 0.34,5.66 0.23,2.3 0.55,4.82 0.97,7.56 l 1.1,7.72 1.05,7.76 c 0.3,2.53 0.52,4.76 0.65,6.71 l 0.17,2.09 -0.06,1.13 c -0.09,0.4 -0.29,0.6 -0.59,0.6 -0.4,-0.04 -0.79,-0.46 -1.16,-1.25 -0.76,-1.41 -1.37,-2.77 -1.84,-4.07 -0.44,-1.14 -0.84,-2.41 -1.22,-3.82 l -0.82,-3.26 -0.23,-0.96 -0.39,-0.62 -0.46,0.62 -0.56,2.57 -0.12,0.77 c 0.02,0.75 0.73,2.58 2.13,5.49 1.83,3.96 3.52,5.94 5.06,5.94 z m 100.3,0.26 c 1.74,0 3.65,-0.18 5.75,-0.54 3.51,-0.62 6.69,-1.75 9.56,-3.37 l 1.95,-1.19 0.34,0.88 0.65,2.04 c 0.1,0.32 0.28,0.56 0.54,0.73 l 0.6,0.29 1.86,0.79 0.49,0.11 0.25,-0.25 -0.37,-1.11 -1.95,-5.37 1.36,-1.16 c 7.15,-6.21 10.76,-12.67 10.84,-19.39 0,-2.91 -0.74,-5.57 -2.21,-7.98 -1.53,-2.49 -3.54,-4.38 -6.03,-5.66 -1.34,-0.72 -2.94,-1.26 -4.8,-1.63 -1.85,-0.37 -3.67,-0.55 -5.44,-0.55 -2.13,0 -4.16,0.25 -6.09,0.74 -1.28,0.3 -2.68,0.71 -4.19,1.24 l -1.78,0.6 -1.53,-0.68 c -2.94,-1.27 -5.68,-1.9 -8.2,-1.9 -1.4,0 -2.77,0.17 -4.11,0.51 -2.07,0.51 -3.11,1.27 -3.11,2.29 -0.02,0.95 0.85,1.82 2.6,2.63 1.19,0.53 2.45,0.92 3.77,1.16 0.85,0.16 1.79,0.23 2.83,0.23 2.05,-0.04 4.97,-0.52 8.74,-1.44 l 0.62,0.59 c 1.63,1.57 2.91,3.25 3.85,5.04 1.06,1.94 2.13,4.32 3.2,7.13 l 2.86,7.61 2.46,7.05 0.85,2.43 -2.43,1.73 c -3.31,2.11 -6.92,3.6 -10.84,4.47 -1.55,0.34 -3.05,0.51 -4.5,0.51 -0.93,0 -1.81,-0.12 -2.66,-0.37 -2.17,-0.58 -3.24,-1.67 -3.2,-3.25 0,-1.02 0.8,-2.65 2.4,-4.9 l 1.73,-2.29 1.19,-1.36 0.2,-0.39 -0.12,-0.26 -0.45,-0.28 -1.07,-0.43 -0.51,-0.11 c -0.23,0.02 -0.45,0.12 -0.65,0.31 l -0.97,1.28 -1.81,2.6 c -1.11,1.62 -1.65,3.3 -1.61,5.04 -0.04,2.05 1.03,3.63 3.2,4.72 1.43,0.7 3.41,1.07 5.94,1.11 z m 97.55,0.45 c 0.58,0 1.06,-0.37 1.41,-1.1 0.19,-0.59 0.33,-1.2 0.4,-1.84 -0.07,-3.23 -0.86,-6.66 -2.35,-10.31 -0.73,-1.79 -1.98,-4.15 -3.73,-7.07 l -2.3,-3.65 -2.35,-3.31 -1.38,-1.98 -1.5,-4.53 c -0.62,-2.04 -1.16,-4.12 -1.62,-6.26 l -0.16,-1.24 c 0.01,-0.27 0.06,-0.47 0.14,-0.62 l 0.31,-0.29 0.39,-0.11 c 0.23,0.02 0.46,0.08 0.68,0.17 l 0.8,0.45 1.1,0.85 1.02,0.88 0.9,0.79 0.32,0.2 c 0.07,-0.02 0.15,-0.06 0.22,-0.11 l 0.11,-0.29 c 0,-0.2 -0.09,-0.41 -0.28,-0.62 l -1.3,-1.33 -1.61,-1.41 c -1.32,-1.04 -2.47,-1.54 -3.43,-1.5 -1.54,-0.02 -2.33,0.79 -2.35,2.43 -0.02,1.09 0.17,2.38 0.57,3.85 l 0.76,2.97 -1.07,-0.82 c -0.17,-0.13 -0.3,-0.19 -0.4,-0.17 -0.32,-0.04 -0.46,0.14 -0.42,0.54 -0.02,0.13 0.02,0.24 0.11,0.34 l 0.31,0.31 1.93,1.72 0.96,3.32 c 1.26,4.35 2.17,7.38 2.72,9.08 0.62,1.96 1.29,3.86 2,5.69 0.78,2.07 1.62,4.05 2.52,5.94 0.65,1.4 1.33,2.76 2.07,4.08 1.81,3.34 3.31,4.99 4.5,4.95 z" /><path
       id="path104"
       style="fill:none;stroke:#000000;stroke-width:0.75;stroke-linecap:butt;stroke-linejoin:round;stroke-miterlimit:10;stroke-dasharray:none;stroke-opacity:1"
       d="m 71.604475,77.15694 c -0.83,-0.05 -1.698,-0.75 -2.603,-2.09 -0.831,-1.21 -1.585,-2.5 -2.264,-3.88 -0.85,-1.6 -1.5,-3.06 -1.953,-4.36 -1.189,-3.36 -1.793,-6.44 -1.811,-9.25 -0.019,-1.38 0.216,-2.79 0.707,-4.23 0.491,-1.45 1.094,-2.5 1.811,-3.16 l 0.34,-0.28 1.33,3.08 c 0.717,1.8 1.509,4.06 2.377,6.8 l 1.585,5.23 c 1.245,4.23 1.887,7.44 1.925,9.65 l -0.114,1.19 c -0.188,0.83 -0.632,1.26 -1.33,1.3 z m -0.226,1.16 c 2.245,-0.05 3.358,-1.92 3.339,-5.6 0,-1.79 -0.184,-3.75 -0.552,-5.86 -0.367,-2.11 -0.858,-4.3 -1.471,-6.55 -0.613,-2.26 -1.354,-4.56 -2.222,-6.92 l -1.839,-4.73 1.132,-0.25 c 0.641,-0.15 1.377,-0.25 2.207,-0.28 l 0.764,-0.06 0.396,-0.09 0.142,-0.08 0.028,-0.48 c -0.075,-0.23 -0.188,-0.37 -0.339,-0.43 l -0.595,-0.05 -3.141,0.45 -1.019,0.14 -0.764,-1.53 c -0.849,-1.71 -1.773,-3.26 -2.773,-4.64 -3.547,-5 -8.415,-7.49 -14.604,-7.47 -2.509,-0.02 -5.358,0.46 -8.546,1.44 -0.831,0.23 -1.529,0.53 -2.095,0.91 l -0.339,0.28 -0.085,0.17 c -0.038,0.17 0.037,0.39 0.226,0.65 l 0.566,0.99 0.453,0.48 0.623,-0.28 c 0.358,-0.26 0.905,-0.56 1.641,-0.88 l 2.887,-1.27 c 1.736,-0.74 3.509,-1.09 5.32,-1.08 2,-0.01 3.83,0.43 5.491,1.34 1.49,0.77 2.764,1.82 3.82,3.14 1.604,1.98 3.038,4.3 4.302,6.96 l 0.934,2.01 -0.793,0.62 c -2.792,2.34 -4.197,5.64 -4.216,9.91 -0.038,4.37 1.679,9.05 5.15,14.03 0.736,1.08 1.557,2.09 2.463,3.03 1.264,1.32 2.433,1.98 3.509,1.98 z m 13.677,0 c 1.396,-0.09 2.142,-0.92 2.236,-2.49 -0.057,-1.28 -0.547,-2.64 -1.472,-4.07 -0.585,-0.89 -1.235,-1.68 -1.952,-2.38 l -0.312,-0.26 -0.226,-0.08 c -0.321,-0.02 -0.472,0.1 -0.453,0.37 l 0.113,0.28 0.425,0.65 0.99,1.44 c 0.283,0.44 0.576,1.01 0.878,1.73 l 0.198,0.51 -0.821,0.17 c -1.019,0.28 -1.575,0.97 -1.67,2.07 0.095,1.28 0.783,1.97 2.066,2.06 z m 144.882995,-46.24 -1.13,-1.16 -1.61,-1.78 c -2.08,-2.59 -3.12,-4.65 -3.14,-6.17 0,-0.27 0.05,-0.49 0.17,-0.66 l 0.25,-0.22 0.43,-0.11 c 0.96,-0.04 1.81,0.85 2.54,2.68 l 0.8,2.27 0.73,2.15 z m 13.65,7.44 c 1.56,-0.07 2.39,-1.04 2.46,-2.88 -0.04,-1.46 -0.88,-3.13 -2.52,-5.01 -1.26,-1.42 -2.69,-2.65 -4.27,-3.68 l -0.31,-0.12 c -0.15,0 -0.28,0.06 -0.37,0.17 l -0.11,0.31 0.17,0.26 0.62,0.57 c 1.6,1.39 2.97,2.94 4.1,4.64 l 0.63,1.02 -0.74,0.14 c -1.21,0.3 -1.85,1.05 -1.93,2.26 0.08,1.47 0.83,2.25 2.27,2.32 z m 30.43,9.43 1.25,-0.17 c 0.3,-0.08 0.46,-0.24 0.48,-0.49 l -0.14,-0.42 -0.49,-0.93 -0.45,0.28 c -0.68,0.36 -1.26,0.54 -1.75,0.54 -1.27,-0.02 -2.48,-0.9 -3.65,-2.63 -0.97,-1.44 -1.68,-2.81 -2.15,-4.11 l -0.49,-1.47 c -0.13,-0.47 -0.19,-0.92 -0.19,-1.36 0,-0.98 0.43,-1.47 1.3,-1.47 0.92,0 1.94,0.67 3.05,2.01 l 1.36,1.75 c 0.53,0.72 1.13,1.65 1.79,2.78 l 1.86,3.22 0.74,1.42 0.25,0.42 c 0.12,0.14 0.33,0.2 0.66,0.2 h 1.01 l 0.32,-0.03 0.22,-0.11 0.12,-0.14 c 0,-0.27 -0.04,-0.48 -0.12,-0.65 l -0.28,-0.74 -1.42,-3.93 -1.13,-3.29 -0.45,-1.5 -0.06,-0.45 c 0,-0.6 0.24,-0.92 0.71,-0.96 0.74,0.04 1.58,0.56 2.52,1.56 l 0.71,0.7 0.39,0.34 0.31,0.17 0.23,-0.11 0.09,-0.28 c -0.06,-0.21 -0.19,-0.43 -0.4,-0.65 l -1.73,-1.81 c -1.19,-1.25 -2.37,-1.86 -3.54,-1.84 -1.37,-0.06 -2.05,0.67 -2.03,2.17 0,0.67 0.11,1.45 0.34,2.35 l 0.42,1.59 -1.39,-1.78 -1.64,-1.93 c -1.49,-1.56 -2.94,-2.37 -4.36,-2.4 -0.81,-0.02 -1.5,0.3 -2.09,0.96 -0.47,0.54 -0.72,1.28 -0.74,2.21 -0.01,0.79 0.11,1.54 0.37,2.26 0.83,2.41 2.1,4.41 3.8,6 0.71,0.7 1.57,1.29 2.57,1.78 0.79,0.42 1.61,0.7 2.46,0.85 z m -45.86,0 0.26,-0.12 0.14,-0.22 -0.09,-0.65 -0.42,-1.33 -1.87,-5.81 -0.68,-2.26 c -0.19,-0.68 -0.28,-1.21 -0.28,-1.59 0,-0.52 0.3,-0.83 0.9,-0.93 0.55,-0.04 1.12,0.3 1.7,1.02 l 1.53,1.98 c 0.76,1.09 1.39,2.06 1.9,2.89 l 1.64,2.8 1.27,2.29 0.6,1.11 c 0.11,0.2 0.26,0.34 0.45,0.42 l 0.71,0.17 0.68,0.14 0.56,0.09 0.31,-0.12 0.12,-0.22 -0.26,-0.99 -2.94,-10.45 1.84,1.67 0.39,0.31 0.17,0.03 0.34,-0.25 0.14,-0.29 -0.05,-0.14 -0.37,-0.39 -2.69,-2.47 -1.02,-2.8 -1.16,-3.42 c -0.54,-1.59 -1.21,-3.1 -2.01,-4.53 -1.49,-2.79 -3.16,-4.16 -5.01,-4.1 -1.35,0.02 -2.04,0.7 -2.06,2.06 0,1.4 0.75,3.14 2.26,5.24 0.7,0.98 1.58,2.05 2.63,3.2 l 2.35,2.46 0.71,0.71 2.77,9.48 -1.44,-2.32 -1.19,-1.87 c -2.15,-3.28 -4.04,-4.92 -5.66,-4.9 -0.75,-0.02 -1.33,0.29 -1.72,0.92 -0.4,0.63 -0.58,1.31 -0.54,2.03 -0.02,0.64 0.07,1.37 0.28,2.2 l 0.68,2.66 0.88,3.09 0.54,1.75 c 0.05,0.23 0.15,0.41 0.28,0.54 0.11,0.15 0.31,0.27 0.59,0.37 l 1.42,0.48 z m -14.14,0 1.25,-0.17 c 0.3,-0.08 0.46,-0.24 0.48,-0.49 l -0.14,-0.42 -0.49,-0.93 -0.45,0.28 c -0.68,0.36 -1.26,0.54 -1.75,0.54 -1.27,-0.02 -2.48,-0.9 -3.65,-2.63 -0.97,-1.44 -1.68,-2.81 -2.15,-4.11 l -0.49,-1.47 c -0.13,-0.47 -0.19,-0.92 -0.19,-1.36 0,-0.98 0.43,-1.47 1.3,-1.47 0.92,0 1.94,0.67 3.05,2.01 l 1.36,1.75 c 0.53,0.72 1.13,1.65 1.79,2.78 l 1.86,3.22 0.74,1.42 0.25,0.42 c 0.12,0.14 0.33,0.2 0.66,0.2 h 1.01 l 0.32,-0.03 0.22,-0.11 0.12,-0.14 c 0,-0.27 -0.04,-0.48 -0.12,-0.65 l -0.28,-0.74 -1.42,-3.93 -1.13,-3.29 -0.45,-1.5 -0.06,-0.45 c 0,-0.6 0.24,-0.92 0.71,-0.96 0.74,0.04 1.58,0.56 2.52,1.56 l 0.71,0.7 0.39,0.34 0.31,0.17 0.23,-0.11 0.09,-0.28 c -0.06,-0.21 -0.19,-0.43 -0.4,-0.65 l -1.73,-1.81 c -1.19,-1.25 -2.37,-1.86 -3.54,-1.84 -1.37,-0.06 -2.05,0.67 -2.03,2.17 0,0.67 0.11,1.45 0.34,2.35 l 0.42,1.59 -1.39,-1.78 -1.64,-1.93 c -1.49,-1.56 -2.94,-2.37 -4.36,-2.4 -0.81,-0.02 -1.5,0.3 -2.09,0.96 -0.47,0.54 -0.72,1.28 -0.74,2.21 -0.01,0.79 0.11,1.54 0.37,2.26 0.83,2.41 2.1,4.41 3.8,6 0.71,0.7 1.57,1.29 2.57,1.78 0.79,0.42 1.61,0.7 2.46,0.85 z m -22.56,0 0.2,-0.12 0.08,-0.2 -0.11,-0.59 -2.24,-7.39 1.81,2.58 2.04,2.83 c 1.4,1.89 2.69,2.85 3.88,2.89 0.71,-0.02 1.33,-0.29 1.84,-0.8 0.51,-0.51 0.75,-1.1 0.73,-1.78 -0.02,-0.79 -0.17,-1.6 -0.45,-2.43 l -0.88,-2.3 -1.41,-3.59 -0.14,-0.59 c 0,-0.49 0.22,-0.74 0.68,-0.74 0.26,0 0.58,0.13 0.96,0.4 l 1.38,1.1 1.05,0.96 0.57,0.57 0.31,0.2 0.34,-0.17 0.14,-0.17 0.03,-0.14 c 0.02,-0.44 -0.87,-1.38 -2.66,-2.83 -1.55,-1.25 -2.67,-1.86 -3.37,-1.84 -1.45,0.01 -2.16,0.64 -2.12,1.86 0,0.68 0.19,1.54 0.56,2.58 l 0.88,2.49 0.88,2.49 0.59,1.67 c 0.12,0.32 0.18,0.62 0.2,0.91 0,0.5 -0.26,0.81 -0.79,0.9 -0.55,-0.02 -1.13,-0.42 -1.76,-1.22 l -1.38,-1.86 -2.32,-3.37 c -0.68,-1.02 -1.32,-2.14 -1.93,-3.37 -0.43,-0.91 -0.83,-1.62 -1.19,-2.15 -0.13,-0.23 -0.28,-0.37 -0.45,-0.43 l -0.54,-0.08 h -1.41 l -0.2,0.2 0.08,0.56 0.12,0.43 3.03,10.92 0.14,0.51 c 0.07,0.17 0.17,0.3 0.28,0.4 l 0.48,0.2 1.67,0.42 z m -14.76,0 1.25,-0.17 c 0.3,-0.08 0.46,-0.24 0.48,-0.49 l -0.14,-0.42 -0.49,-0.93 -0.45,0.28 c -0.68,0.36 -1.26,0.54 -1.75,0.54 -1.27,-0.02 -2.48,-0.9 -3.65,-2.63 -0.97,-1.44 -1.68,-2.81 -2.15,-4.11 l -0.49,-1.47 c -0.13,-0.47 -0.19,-0.92 -0.19,-1.36 0,-0.98 0.43,-1.47 1.3,-1.47 0.92,0 1.94,0.67 3.05,2.01 l 1.36,1.75 c 0.53,0.72 1.13,1.65 1.79,2.78 l 1.86,3.22 0.74,1.42 0.25,0.42 c 0.12,0.14 0.33,0.2 0.66,0.2 h 1.01 l 0.32,-0.03 0.22,-0.11 0.12,-0.14 c 0,-0.27 -0.04,-0.48 -0.12,-0.65 l -0.28,-0.74 -1.42,-3.93 -1.13,-3.29 -0.45,-1.5 -0.06,-0.45 c 0,-0.6 0.24,-0.92 0.71,-0.96 0.74,0.04 1.58,0.56 2.52,1.56 l 0.71,0.7 0.39,0.34 0.31,0.17 0.23,-0.11 0.09,-0.28 c -0.06,-0.21 -0.19,-0.43 -0.4,-0.65 l -1.73,-1.81 c -1.19,-1.25 -2.37,-1.86 -3.54,-1.84 -1.37,-0.06 -2.05,0.67 -2.03,2.17 0,0.67 0.11,1.45 0.34,2.35 l 0.42,1.59 -1.39,-1.78 -1.64,-1.93 c -1.49,-1.56 -2.94,-2.37 -4.36,-2.4 -0.81,-0.02 -1.5,0.3 -2.09,0.96 -0.47,0.54 -0.72,1.28 -0.74,2.21 -0.01,0.79 0.11,1.54 0.37,2.26 0.83,2.41 2.1,4.41 3.8,6 0.71,0.7 1.57,1.29 2.57,1.78 0.79,0.42 1.61,0.7 2.46,0.85 z m -17.48,0 0.25,-0.26 -0.11,-0.42 -0.4,-1.05 -0.99,-3.03 -0.99,-3.28 0.97,1.56 1.58,2.71 c 1.45,2.49 2.75,3.75 3.88,3.77 1.07,-0.06 1.59,-1.07 1.55,-3.03 l -0.05,-1.28 c -0.04,-0.43 -0.11,-0.75 -0.2,-0.96 l -0.28,-0.34 -0.54,-0.42 -1.33,-0.82 c -0.25,-0.17 -0.43,-0.25 -0.54,-0.23 l -0.2,0.14 -0.02,0.12 0.02,0.17 0.2,0.56 0.4,1.13 c 0.15,0.44 0.23,0.81 0.25,1.14 v 0.33 l -0.03,0.23 -0.14,0.26 -0.25,0.08 -0.29,-0.08 c -0.81,-0.63 -1.94,-2.22 -3.39,-4.79 -0.98,-1.71 -1.68,-3.1 -2.1,-4.16 l -0.56,-1.36 -0.14,-0.25 c -0.12,-0.13 -0.23,-0.19 -0.34,-0.17 h -0.51 -1.08 l -0.48,0.06 -0.17,0.11 -0.06,0.2 0.06,0.31 0.62,2.04 1.05,3.79 0.77,3.42 0.31,1.73 c 0.02,0.34 0.07,0.58 0.17,0.71 0.05,0.13 0.19,0.24 0.42,0.34 l 0.62,0.25 1.36,0.51 z m -69.373995,0 0.226,-0.12 0.085,-0.2 -0.141,-0.59 -2.236,-7.44 1.811,2.77 2.151,3.06 c 1.245,1.68 2.387,2.52 3.425,2.52 1.471,0 2.217,-0.86 2.235,-2.58 -0.018,-1.3 -0.358,-3 -1.018,-5.09 l -0.68,-2.1 1.302,2.21 c 0.868,1.49 1.612999,2.67 2.235999,3.54 l 1.612996,2.12 c 1.076,1.26 2.038,1.9 2.887,1.9 0.717,-0.02 1.316,-0.33 1.797,-0.94 0.481,-0.6 0.722,-1.27 0.722,-2.01 -0.019,-0.56 -0.085,-1.11 -0.199,-1.64 l -0.764,-2.86 c -0.49,-1.7 -0.839,-2.8 -1.047,-3.31 -0.151,-0.38 -0.226,-0.7 -0.226,-0.96 -0.019,-0.3 0.141,-0.47 0.481,-0.51 0.264,0 0.594,0.14 0.99,0.42 l 1.387,1.08 1.019,0.93 0.566,0.6 0.34,0.2 0.311,-0.2 0.198,-0.28 c 0.038,-0.4 -0.623,-1.16 -1.981,-2.27 -1.189,-1.02 -2.123,-1.71 -2.802,-2.06 -0.415,-0.25 -0.887,-0.36 -1.415,-0.34 -1.339,0.01 -1.99,0.59 -1.953,1.72 0,0.42 0.085,0.93 0.255,1.53 l 0.368,1.39 c 0.623,2.37 1.179,4.26 1.67,5.66 0.245,0.71 0.377,1.35 0.396,1.89 -0.019,0.4 -0.217,0.64 -0.594,0.71 -0.453,0 -1.076,-0.54 -1.868,-1.61 l -1.726996,-2.55 -2.036999,-3.2 -1.613,-2.83 -1.274,-2.21 c -0.17,-0.28 -0.321,-0.44 -0.453,-0.48 l -0.566,-0.02 h -1.726 c -0.359,-0.04 -0.547,0.13 -0.566,0.5 l 0.113,0.49 0.934,2.26 1.5,3.96 1.132,3.31 c 0.17,0.57 0.264,1.04 0.283,1.42 -0.019,0.62 -0.302,0.94 -0.849,0.96 -0.566,0.02 -1.151,-0.41 -1.755,-1.27 l -1.641,-2.35 -2.094,-3.34 c -0.717,-1.23 -1.255,-2.2 -1.613,-2.92 l -1.189,-2.43 c -0.17,-0.25 -0.321,-0.42 -0.453,-0.51 -0.113,-0.08 -0.292,-0.1 -0.538,-0.08 h -1.415 l -0.198,0.19 0.085,0.6 0.113,0.45 3.028,11.26 0.142,0.51 c 0.038,0.19 0.141,0.33 0.311,0.43 l 0.453,0.2 1.67,0.42 z m 44.633995,29.37 0.25,-0.14 0.15,-0.31 -0.03,-0.48 -1.62,-9.68 c -0.3,-1.7 -0.9,-4.59 -1.81,-8.66 l 2.18,4.41 c 2.04,3.99 4.18,7.13 6.43,9.43 3.47,3.58 6.74,5.39 9.82,5.43 2.13,-0.07 3.93,-0.89 5.4,-2.46 1.3,-1.62 1.99,-3.51 2.07,-5.66 -0.08,-4.91 -2.18,-9.89 -6.31,-14.94 -3.42,-4.1 -7.86,-7.23 -13.33,-9.4 -1.81,-0.72 -3.34,-1.23 -4.59,-1.53 l -2.91,-0.73 -0.54,-0.03 -0.14,0.14 -0.06,0.25 c 0.02,0.21 0.09,0.46 0.2,0.74 l 0.65,1.44 c 0.08,0.21 0.18,0.34 0.31,0.4 l 0.28,0.03 2.27,0.06 c 5.56,0.69 10.08,3.08 13.55,7.16 1.38,1.58 2.6,3.35 3.66,5.32 1.13,2.07 2.02,4.27 2.68,6.59 0.55,1.96 0.83,3.74 0.85,5.32 0,1.57 -0.38,2.88 -1.16,3.93 -0.94,1.33 -2.11,1.98 -3.51,1.96 -3.17,-0.06 -6.77,-2.74 -10.81,-8.04 -1.3,-1.7 -2.5,-3.57 -3.59,-5.62 -1.1,-2.05 -2.14,-4.31 -3.14,-6.8 -0.74,-1.8 -1.63,-4.16 -2.66,-7.11 l -2.13,-6.14 -2.203,-6.9 c -0.962,-3.16 -1.764,-5.71 -2.406,-7.67 l -0.368,-0.63 -0.65,0.4 -1.529,1.33 -0.481,0.48 v 0.17 l 0.142,0.48 1.075,3.03 1.925,5.55 1.415,4.38 2.52,8.35 c 1.02,3.62 1.89,7.08 2.63,10.36 l 1.7,8.46 c 0.43,2.25 0.72,3.98 0.88,5.21 0.01,0.3 0.08,0.54 0.19,0.71 0.08,0.11 0.21,0.22 0.4,0.34 l 1.5,0.82 c 0.3,0.15 0.58,0.23 0.85,0.25 z m 266.44,-38.91 c -1.96,-0.02 -3.53,-0.36 -4.7,-1.02 l -0.7,-0.45 0.82,-0.46 c 0.43,-0.22 0.95,-0.4 1.55,-0.53 0.83,-0.25 1.62,-0.35 2.35,-0.31 0.98,-0.02 2.19,0.14 3.62,0.48 1.04,0.2 1.9,0.46 2.58,0.76 l 0.74,0.34 -1.25,0.42 c -1.87,0.53 -3.54,0.79 -5.01,0.77 z m 141.6,8.35 c -0.66,-0.02 -1.3,-0.41 -1.92,-1.16 l -1.08,-1.56 -1.27,-2.18 -0.85,-1.81 -0.71,-1.78 1.44,0.65 c 3.19,1.51 5.01,3.28 5.47,5.32 l 0.08,0.93 c -0.02,0.83 -0.25,1.33 -0.71,1.5 z m -33.85,0 c -1.46,0 -2.93,-1.33 -4.42,-3.99 -1.21,-2.14 -1.8,-4.08 -1.78,-5.83 0,-0.38 0.07,-0.74 0.22,-1.08 l 0.32,-0.48 0.42,-0.28 c 0.17,-0.1 0.37,-0.13 0.6,-0.12 2.32,-0.01 4.29,2.25 5.91,6.8 0.41,1.17 0.62,2.18 0.62,3.02 0,1.21 -0.63,1.86 -1.89,1.96 z m -26.87,0 c -0.66,-0.02 -1.3,-0.41 -1.92,-1.16 l -1.08,-1.56 -1.27,-2.18 -0.85,-1.81 -0.71,-1.78 1.44,0.65 c 3.19,1.51 5.01,3.28 5.47,5.32 l 0.08,0.93 c -0.02,0.83 -0.25,1.33 -0.71,1.5 z m -30,0 c -0.66,-0.02 -1.3,-0.41 -1.92,-1.16 l -1.08,-1.56 -1.27,-2.18 -0.85,-1.81 -0.71,-1.78 1.44,0.65 c 3.19,1.51 5.01,3.28 5.47,5.32 l 0.08,0.93 c -0.02,0.83 -0.25,1.33 -0.71,1.5 z m -79.04,0 c -0.83,-0.02 -1.73,-0.63 -2.69,-1.81 l -1.38,-1.84 -1.33,-1.93 c -0.55,-0.79 -0.99,-1.51 -1.31,-2.15 -0.26,-0.49 -0.48,-1.04 -0.65,-1.64 -0.17,-0.6 -0.24,-1.05 -0.22,-1.33 -0.02,-0.7 0.33,-1.06 1.04,-1.08 0.98,0 2.19,0.63 3.63,1.87 0.96,0.85 1.84,1.93 2.63,3.23 0.56,0.89 1.05,1.85 1.47,2.88 0.3,0.72 0.45,1.33 0.45,1.82 0,0.6 -0.15,1.08 -0.45,1.43 -0.3,0.34 -0.7,0.53 -1.19,0.55 z m -17.32,0 c -0.66,-0.02 -1.3,-0.41 -1.92,-1.16 l -1.08,-1.56 -1.27,-2.18 -0.85,-1.81 -0.71,-1.78 1.44,0.65 c 3.19,1.51 5.01,3.28 5.47,5.32 l 0.08,0.93 c -0.02,0.83 -0.25,1.33 -0.71,1.5 z m 199.42,1.19 0.25,-0.26 -0.11,-0.42 -0.4,-1.05 -0.99,-3.03 -0.99,-3.28 0.97,1.56 1.58,2.71 c 1.45,2.49 2.75,3.75 3.88,3.77 1.07,-0.06 1.59,-1.07 1.55,-3.03 l -0.05,-1.28 c -0.04,-0.43 -0.11,-0.75 -0.2,-0.96 l -0.28,-0.34 -0.54,-0.42 -1.33,-0.82 c -0.25,-0.17 -0.43,-0.25 -0.54,-0.23 l -0.2,0.14 -0.02,0.12 0.02,0.17 0.2,0.56 0.4,1.13 c 0.15,0.44 0.23,0.81 0.25,1.14 v 0.33 l -0.03,0.23 -0.14,0.26 -0.25,0.08 -0.29,-0.08 c -0.81,-0.63 -1.94,-2.22 -3.39,-4.79 -0.98,-1.71 -1.68,-3.1 -2.1,-4.16 l -0.56,-1.36 -0.14,-0.25 c -0.12,-0.13 -0.23,-0.19 -0.34,-0.17 h -0.51 -1.08 l -0.48,0.06 -0.17,0.11 -0.05,0.2 0.05,0.31 0.62,2.04 1.05,3.79 0.77,3.42 0.31,1.73 c 0.02,0.34 0.07,0.58 0.17,0.71 0.05,0.13 0.19,0.24 0.42,0.34 l 0.62,0.25 1.36,0.51 z m -11.26,0 c 0.81,0 1.52,-0.25 2.13,-0.75 0.62,-0.5 0.92,-1.18 0.92,-2.03 0.02,-2.45 -2.31,-4.71 -6.99,-6.79 l -3,-1.3 0.06,-0.43 c 0.24,-1.09 0.95,-1.65 2.12,-1.67 1.26,0.02 2.81,0.75 4.64,2.18 l 1.76,1.56 c 0.17,0.15 0.34,0.24 0.51,0.25 l 0.25,-0.08 c 0.08,-0.08 0.11,-0.17 0.11,-0.28 l -0.11,-0.34 c -1.23,-1.72 -2.98,-3.01 -5.26,-3.88 -0.55,-0.23 -1.07,-0.39 -1.56,-0.48 -0.49,-0.1 -0.97,-0.13 -1.44,-0.11 -2.66,0.01 -4.01,1.2 -4.05,3.56 -0.02,2.25 1.04,4.55 3.17,6.92 2.13,2.37 4.38,3.59 6.74,3.67 z m -21.41,0 c 0.08,-0.02 0.15,-0.06 0.23,-0.12 l 0.11,-0.28 -0.05,-0.4 -1,-2.83 -1.47,-4.67 0.97,2.18 c 0.39,0.83 0.81,1.63 1.24,2.39 0.43,0.77 0.95,1.46 1.56,2.08 0.98,1.06 2.16,1.61 3.53,1.65 1.23,0.01 2.27,-0.44 3.12,-1.36 0.77,-0.87 1.17,-1.94 1.19,-3.2 -0.04,-2.38 -0.79,-4.53 -2.24,-6.45 -1.6,-2.14 -3.57,-3.18 -5.91,-3.14 -0.66,-0.02 -1.32,0.07 -1.99,0.28 -1.07,0.26 -1.6,0.66 -1.58,1.19 0,0.17 0.07,0.35 0.2,0.53 l 0.22,0.26 0.57,-0.28 1.05,-0.51 c 0.39,-0.19 0.73,-0.29 1.02,-0.29 1.32,-0.01 2.57,1.05 3.76,3.2 0.89,1.55 1.48,3.16 1.78,4.84 0.1,0.51 0.15,1.03 0.15,1.56 0,1.41 -0.61,2.14 -1.82,2.18 -1.58,-0.02 -3.16,-1.54 -4.72,-4.56 l -1.64,-3.42 c -1.29,-2.91 -2.43,-5.98 -3.43,-9.23 l -1.47,-4.73 -1.22,-3.56 -0.19,-0.54 c -0.12,-0.19 -0.23,-0.32 -0.34,-0.4 l -0.4,-0.14 -1.56,-0.39 h -0.22 l -0.29,0.11 -0.11,0.17 0.03,0.34 1.81,5.86 2.26,7.67 2.21,7.55 1.25,4.08 c 0.09,0.28 0.21,0.54 0.36,0.76 l 0.29,0.31 0.25,0.2 2.18,0.99 z m -12.93,0 c 1.26,-0.02 2.26,-0.41 3,-1.16 0.87,-0.87 1.29,-1.86 1.27,-2.98 0,-1.77 -0.62,-3.56 -1.86,-5.37 -1.14,-1.66 -2.55,-2.93 -4.25,-3.8 -1.13,-0.58 -2.29,-0.86 -3.48,-0.84 -1.23,0 -2.28,0.38 -3.16,1.14 -0.87,0.77 -1.3,1.77 -1.28,3.02 -0.02,2.32 1.03,4.54 3.17,6.67 2.22,2.23 4.42,3.33 6.59,3.32 z m -26.38,0 c 0.81,0 1.52,-0.25 2.13,-0.75 0.62,-0.5 0.92,-1.18 0.92,-2.03 0.02,-2.45 -2.31,-4.71 -6.99,-6.79 l -3,-1.3 0.06,-0.43 c 0.24,-1.09 0.95,-1.65 2.12,-1.67 1.26,0.02 2.81,0.75 4.64,2.18 l 1.76,1.56 c 0.17,0.15 0.34,0.24 0.51,0.25 l 0.25,-0.08 c 0.08,-0.08 0.11,-0.17 0.11,-0.28 l -0.11,-0.34 c -1.23,-1.72 -2.98,-3.01 -5.26,-3.88 -0.55,-0.23 -1.07,-0.39 -1.56,-0.48 -0.49,-0.1 -0.97,-0.13 -1.44,-0.11 -2.66,0.01 -4.01,1.2 -4.05,3.56 -0.02,2.25 1.04,4.55 3.17,6.92 2.13,2.37 4.38,3.59 6.74,3.67 z m -19.14,0 0.26,-0.15 0.08,-0.28 -0.08,-0.45 -0.26,-0.77 -0.87,-2.23 -0.99,-3.03 -0.8,-2.69 -0.19,-0.99 -0.09,-1.02 c 0.02,-0.81 0.37,-1.26 1.05,-1.36 1.88,0.1 3.9,2.7 6.05,7.82 l 1.05,2.46 0.6,1.58 c 0.05,0.29 0.14,0.48 0.25,0.6 0.11,0.11 0.28,0.19 0.51,0.25 l 1.19,0.2 0.28,0.06 c 0.34,-0.04 0.5,-0.23 0.48,-0.57 l -0.05,-0.37 -0.2,-0.56 c -0.61,-1.55 -1.44,-3.15 -2.49,-4.79 -0.68,-1.09 -1.4,-2.14 -2.15,-3.14 -2.44,-3.21 -4.49,-4.78 -6.17,-4.72 -1.76,0.01 -2.66,0.94 -2.72,2.77 0,0.73 0.1,1.59 0.31,2.57 l 0.82,3.4 1.11,3.54 0.22,0.59 0.26,0.4 c 0.11,0.09 0.28,0.19 0.51,0.28 l 1.24,0.4 z m -10.86,0 c 0.81,0 1.52,-0.25 2.13,-0.75 0.62,-0.5 0.92,-1.18 0.92,-2.03 0.02,-2.45 -2.31,-4.71 -6.99,-6.79 l -3,-1.3 0.06,-0.43 c 0.24,-1.09 0.95,-1.65 2.12,-1.67 1.26,0.02 2.81,0.75 4.64,2.18 l 1.76,1.56 c 0.17,0.15 0.34,0.24 0.51,0.25 l 0.25,-0.08 c 0.08,-0.08 0.11,-0.17 0.11,-0.28 l -0.11,-0.34 c -1.23,-1.72 -2.98,-3.01 -5.26,-3.88 -0.55,-0.23 -1.07,-0.39 -1.56,-0.48 -0.49,-0.1 -0.97,-0.13 -1.44,-0.11 -2.66,0.01 -4.01,1.2 -4.05,3.56 -0.02,2.25 1.04,4.55 3.17,6.92 2.13,2.37 4.38,3.59 6.74,3.67 z m -96.36,0 c 0.81,0 1.52,-0.25 2.13,-0.75 0.62,-0.5 0.92,-1.18 0.92,-2.03 0.02,-2.45 -2.31,-4.71 -6.99,-6.79 l -3,-1.3 0.06,-0.43 c 0.24,-1.09 0.95,-1.65 2.12,-1.67 1.26,0.02 2.81,0.75 4.64,2.18 l 1.76,1.56 c 0.17,0.15 0.34,0.24 0.51,0.25 l 0.25,-0.08 c 0.08,-0.08 0.11,-0.17 0.11,-0.28 l -0.11,-0.34 c -1.23,-1.72 -2.98,-3.01 -5.26,-3.88 -0.55,-0.23 -1.07,-0.39 -1.56,-0.48 -0.49,-0.1 -0.97,-0.13 -1.44,-0.11 -2.66,0.01 -4.01,1.2 -4.05,3.56 -0.02,2.25 1.04,4.55 3.17,6.92 2.13,2.37 4.38,3.59 6.74,3.67 z m 70.49,19.66 -1.18,-3.39 -1.16,-3.43 c -2.61,-7.67 -4.74,-12.83 -6.4,-15.45 -0.93,-1.45 -1.99,-2.82 -3.2,-4.1 l -2.38,-2.32 1.87,-0.57 c 1.59,-0.47 3.18,-0.83 4.78,-1.07 1.72,-0.31 3.33,-0.45 4.84,-0.43 4.53,0 8.07,1.23 10.62,3.68 1.03,0.98 1.78,2.2 2.23,3.65 0.36,1.12 0.54,2.34 0.54,3.68 -0.04,3.38 -1.01,6.76 -2.91,10.16 -1.91,3.4 -4.03,6.22 -6.37,8.46 z m -50.66,6.23 c 0.31,-0.09 0.46,-0.29 0.46,-0.59 l -0.14,-0.57 -0.34,-1.02 -4.5,-14.57 -4.11,-13.33 c 2.29,2.81 4.23,4.2 5.83,4.19 1.12,0 2.04,-0.39 2.76,-1.15 0.73,-0.76 1.08,-1.72 1.06,-2.87 0,-2.64 -1.32,-4.96 -3.96,-6.94 -2.75,-2.13 -5.31,-3.19 -7.67,-3.19 -1.9,0.03 -2.85,0.89 -2.83,2.57 0,0.49 0.07,1 0.2,1.53 l 0.48,1.78 3.82,13.39 5.46,18.62 0.26,0.76 c 0.09,0.23 0.25,0.41 0.48,0.54 l 0.57,0.23 1.67,0.45 z m 129.62,2.27 c -0.94,-0.14 -2.53,-3.2 -4.76,-9.2 l -1.44,-4.33 -0.96,-3.09 -1.67,-5.54 -0.79,-2.75 0.85,1.19 c 1.11,1.58 2.18,3.3 3.19,5.15 1.16,2.08 2.23,4.3 3.23,6.68 1.87,4.41 2.87,8.03 3,10.84 l -0.06,0.48 c -0.07,0.4 -0.27,0.58 -0.59,0.57 z m -197.85,1.21 c 1.46,0 2.36,-1.23 2.72,-3.71 0.15,-1.11 0.24,-2.11 0.25,-3 0,-1.75 -0.15,-3.87 -0.45,-6.36 -0.36,-3.06 -0.79,-6.32 -1.3,-9.79 l -0.88,-5.92 c -0.68,-4.38 -1.21,-8.13 -1.58,-11.26 l -0.09,-1.14 0.09,-0.42 0.28,-0.2 0.4,0.12 c 0.2,0.13 0.39,0.28 0.56,0.45 l 1.56,1.89 c 1.62,2.1 3.06,4.2 4.33,6.32 1.41,2.32 3.07,5.49 4.98,9.53 1.64,3.46 2.97,6.43 3.99,8.92 1.47,3.53 2.58,6.53 3.31,9.03 l 1.33,4.44 0.2,0.59 c 0.08,0.23 0.19,0.38 0.34,0.46 l 0.54,0.05 h 1.13 l 0.57,-0.11 0.05,-0.26 v -0.14 l -0.14,-0.87 -0.85,-5.86 -1.47,-9.31 c -0.45,-2.85 -0.89,-6.03 -1.3,-9.54 -0.61,-4.66 -0.9,-8.27 -0.88,-10.81 0.06,-4.02 0.69,-6.06 1.9,-6.12 1.07,0.02 2.86,1.37 5.37,4.05 1.42,1.53 2.84,3.41 4.28,5.63 3.32,5.12 6.28,11.2 8.88,18.26 1.14,3.04 2.02,5.86 2.66,8.46 0.36,1.47 0.65,2.87 0.85,4.19 0.1,0.53 0.21,0.88 0.34,1.07 l 0.82,0.48 1.28,0.66 0.56,0.14 0.26,-0.99 -0.09,-0.94 c -2.41,-12.09 -7.68,-23.62 -15.79,-34.58 -1.32,-1.77 -2.65,-3.27 -3.99,-4.5 -1.08,-1 -2.23,-1.84 -3.45,-2.52 -0.98,-0.57 -1.86,-0.84 -2.63,-0.82 -1.53,-0.02 -2.67,1.05 -3.43,3.2 -0.45,1.3 -0.67,2.94 -0.65,4.92 0,3.7 0.28,7.66 0.85,11.89 l 0.96,6.62 0.79,5.55 -1.86,-4.56 c -1.19,-2.77 -2.47,-5.57 -3.82,-8.4 -1.63,-3.36 -3.17,-6.25 -4.65,-8.66 -2.9,-4.85 -5.54,-8.17 -7.92,-9.97 -0.53,-0.41 -1.02,-0.61 -1.47,-0.59 -1.13,0 -1.72,1.26 -1.76,3.79 0,1.7 0.12,3.59 0.34,5.66 0.23,2.3 0.55,4.82 0.97,7.56 l 1.1,7.72 1.05,7.76 c 0.3,2.53 0.52,4.76 0.65,6.71 l 0.17,2.09 -0.06,1.13 c -0.09,0.4 -0.29,0.6 -0.59,0.6 -0.4,-0.04 -0.79,-0.46 -1.16,-1.25 -0.76,-1.41 -1.37,-2.77 -1.84,-4.07 -0.44,-1.14 -0.84,-2.41 -1.22,-3.82 l -0.82,-3.26 -0.23,-0.96 -0.39,-0.62 -0.46,0.62 -0.56,2.57 -0.12,0.77 c 0.02,0.75 0.73,2.58 2.13,5.49 1.83,3.96 3.52,5.94 5.06,5.94 z m 100.3,0.26 c 1.74,0 3.65,-0.18 5.75,-0.54 3.51,-0.62 6.69,-1.75 9.56,-3.37 l 1.95,-1.19 0.34,0.88 0.65,2.04 c 0.1,0.32 0.28,0.56 0.54,0.73 l 0.6,0.29 1.86,0.79 0.49,0.11 0.25,-0.25 -0.37,-1.11 -1.95,-5.37 1.36,-1.16 c 7.15,-6.21 10.76,-12.67 10.84,-19.39 0,-2.91 -0.74,-5.57 -2.21,-7.98 -1.53,-2.49 -3.54,-4.38 -6.03,-5.66 -1.34,-0.72 -2.94,-1.26 -4.8,-1.63 -1.85,-0.37 -3.67,-0.55 -5.44,-0.55 -2.13,0 -4.16,0.25 -6.09,0.74 -1.28,0.3 -2.68,0.71 -4.19,1.24 l -1.78,0.6 -1.53,-0.68 c -2.94,-1.27 -5.68,-1.9 -8.2,-1.9 -1.4,0 -2.77,0.17 -4.11,0.51 -2.07,0.51 -3.11,1.27 -3.11,2.29 -0.02,0.95 0.85,1.82 2.6,2.63 1.19,0.53 2.45,0.92 3.77,1.16 0.85,0.16 1.79,0.23 2.83,0.23 2.05,-0.04 4.97,-0.52 8.74,-1.44 l 0.62,0.59 c 1.63,1.57 2.91,3.25 3.85,5.04 1.06,1.94 2.13,4.32 3.2,7.13 l 2.86,7.61 2.46,7.05 0.85,2.43 -2.43,1.73 c -3.31,2.11 -6.92,3.6 -10.84,4.47 -1.55,0.34 -3.05,0.51 -4.5,0.51 -0.93,0 -1.81,-0.12 -2.66,-0.37 -2.17,-0.58 -3.24,-1.67 -3.2,-3.25 0,-1.02 0.8,-2.65 2.4,-4.9 l 1.73,-2.29 1.19,-1.36 0.2,-0.39 -0.12,-0.26 -0.45,-0.28 -1.07,-0.43 -0.51,-0.11 c -0.23,0.02 -0.45,0.12 -0.65,0.31 l -0.97,1.28 -1.81,2.6 c -1.11,1.62 -1.65,3.3 -1.61,5.04 -0.04,2.05 1.03,3.63 3.2,4.72 1.43,0.7 3.41,1.07 5.94,1.11 z m 97.55,0.45 c 0.58,0 1.06,-0.37 1.41,-1.1 0.19,-0.59 0.33,-1.2 0.4,-1.84 -0.07,-3.23 -0.86,-6.66 -2.35,-10.31 -0.73,-1.79 -1.98,-4.15 -3.73,-7.07 l -2.3,-3.65 -2.35,-3.31 -1.38,-1.98 -1.5,-4.53 c -0.62,-2.04 -1.16,-4.12 -1.62,-6.26 l -0.16,-1.24 c 0.01,-0.27 0.06,-0.47 0.14,-0.62 l 0.31,-0.29 0.39,-0.11 c 0.23,0.02 0.46,0.08 0.68,0.17 l 0.8,0.45 1.1,0.85 1.02,0.88 0.9,0.79 0.32,0.2 c 0.07,-0.02 0.15,-0.06 0.22,-0.11 l 0.11,-0.29 c 0,-0.2 -0.09,-0.41 -0.28,-0.62 l -1.3,-1.33 -1.61,-1.41 c -1.32,-1.04 -2.47,-1.54 -3.43,-1.5 -1.54,-0.02 -2.33,0.79 -2.35,2.43 -0.02,1.09 0.17,2.38 0.57,3.85 l 0.76,2.97 -1.07,-0.82 c -0.17,-0.13 -0.3,-0.19 -0.4,-0.17 -0.32,-0.04 -0.46,0.14 -0.42,0.54 -0.02,0.13 0.02,0.24 0.11,0.34 l 0.31,0.31 1.93,1.72 0.96,3.32 c 1.26,4.35 2.17,7.38 2.72,9.08 0.62,1.96 1.29,3.86 2,5.69 0.78,2.07 1.62,4.05 2.52,5.94 0.65,1.4 1.33,2.76 2.07,4.08 1.81,3.34 3.31,4.99 4.5,4.95 z" /></g></svg>